<svg xmlns="http://www.w3.org/2000/svg" viewBox="240 180 520 660">
  <path fill="#020202" d="m264.37 682-.08-442.45c0-21.97 11.2-33.1 33.33-33.1l312.46.02h15.98v5.68c-.02 24-.02 47.99-.08 71.99-.05 24.65 16.07 41.2 40.8 41.37 23.99.16 47.99-.02 71.98-.05h6.26c.1 1.85.25 3.3.25 4.74l.08 457.95c0 19.03-12.16 31.19-31.27 31.2-138.65.05-277.3.1-415.95.07-4.44 0-9.12-.28-13.27-1.66-12-4-19.2-12.48-20.15-25.3-.59-7.79-.35-15.65-.36-23.48-.02-28.82 0-57.65.02-86.98m323.13-8.61h89.2v-17.84H332.96v17.84H587.5m22-245.48h67.06V410.1H332.8v17.82h276.7m67.47 60.48v-12.97H332.91v17.82h224.77c38.16-.01 76.31-.05 114.47-.04 2.74 0 5.62.47 4.82-4.8m-.03 104.33c.13-4.55-3.38-2.8-5.37-2.8-111.28-.08-222.56-.06-333.83-.05h-4.75v17.97h343.95v-15.12m-255.1-259.06c17.93 2.68 34.13-4.98 42.73-20.21 8-14.15 6.44-33.18-3.72-45.57-12.25-14.95-27.9-18.01-51.77-9.98l-5.4-9.54-11.02 27.87 27.88 5.15-5.2-10.9c10.88-7.4 26.74-4.87 35.03 5.3 9.12 11.17 8.18 27.78-2.13 37.72-11.68 11.25-26.4 9.94-42.17-3.97-5 3-10.12 6.09-15.24 9.14-5.23 3.11-10.48 6.2-15.68 9.28l4.8 11.61c7.25-4.3 14.15-8.24 20.87-12.46 2.32-1.45 3.8-1.25 6.2.11 4.43 2.52 9.32 4.23 14.83 6.45m-57.52 18.12c-.77 1.01-1.33 2.45-2.35 2.96-11.59 5.8-26.3 1.49-33.87-9.79-7.31-10.9-5.29-26.51 4.61-35.56 10.09-9.21 24.33-9.63 34.59-.95 2 1.7 3.8 3.6 5.71 5.43l31.67-19.34-4.11-11.94-25.28 14.99c-20.31-12.23-38.05-11.06-52.8 3.47-13.01 12.83-15.62 33.8-6.15 49.75a38.8 38.8 0 0 0 19.8 16.85c12.05 4.66 23.78 3.16 35.13-2.92l5.68 9.55 10.83-27-27.78-4.96c1.67 3.64 2.83 6.17 4.32 9.46m-24.67 369.42h-6.72v17.81h149.34v-17.81H339.66m3.88-189.03h-10.71v17.73h149.36V532.2H343.54z"/>
  <path fill="#030303" d="M645.2 224v-14.57l97.3 97.42 1.06-.69c-1.28.1-2.55.3-3.82.3-23.8.01-47.61.04-71.42 0-14.22-.03-23.11-8.82-23.16-23.02-.07-19.64.02-39.29.05-59.43z"/>
  <path fill="none" d="M587 673.39H332.97v-17.84h343.72v17.84H587zm22-245.48H332.8v-17.82h343.76v17.82H609zm67.97 60.97c.8 4.79-2.08 4.32-4.82 4.32-38.16-.01-76.31.03-114.47.03l-219.45.01h-5.32v-17.82h344.06v13.46zm-.03 104.32v14.65H333v-17.97h4.75c111.27 0 222.55-.03 333.83.05 2 0 5.5-1.75 5.37 3.28zm-255.5-259.62c-5.1-2.13-9.99-3.84-14.42-6.36-2.4-1.36-3.88-1.56-6.2-.1-6.72 4.21-13.62 8.15-20.88 12.45l-4.8-11.61c5.21-3.08 10.46-6.17 15.69-9.28 5.12-3.05 10.23-6.13 15.24-9.14 15.78 13.91 30.5 15.22 42.17 3.97 10.31-9.94 11.25-26.55 2.13-37.73-8.3-10.16-24.15-12.68-35.02-5.3l5.2 10.91-27.9-5.15 11.04-27.87 5.39 9.54c23.88-8.03 39.52-4.97 51.77 9.98 10.16 12.4 11.71 31.42 3.72 45.57-8.6 15.23-24.8 22.89-43.13 20.12z"/>
  <path fill="none" d="m364.17 351.41-4.16-9.08 27.78 4.96-10.83 27-5.68-9.55c-11.35 6.08-23.08 7.58-35.14 2.92a38.8 38.8 0 0 1-19.8-16.85c-9.46-15.94-6.85-36.92 6.17-49.75 14.74-14.53 32.48-15.7 52.8-3.47l25.27-15 4.1 11.95-31.66 19.34c-1.9-1.82-3.71-3.73-5.71-5.43-10.26-8.68-24.5-8.26-34.59.95-9.9 9.05-11.92 24.66-4.6 35.56 7.56 11.28 22.27 15.59 33.86 9.8 1.02-.52 1.58-1.96 2.19-3.35zm-24.02 369.8h142.13v17.81H332.94v-17.8l7.2-.01zm3.89-189.03h138.15v17.73H332.83v-17.73h11.2z"/>
</svg>
